<svg xmlns="http://www.w3.org/2000/svg" width="33.73" height="33.73" viewBox="0 0 33.73 33.73"><defs><style>.a{fill:#fff;stroke:#cccccc;}.b{fill:#cccccc;}.c{stroke:none;}.d{fill:none;}</style></defs><g transform="translate(-209.02 -180.5)"><g class="a" transform="translate(215 189)"><rect class="c" width="24" height="20"/><rect class="d" x="0.5" y="0.5" width="23" height="19"/></g><path class="b" d="M16.865,0A16.865,16.865,0,1,0,28.79,4.94,16.865,16.865,0,0,0,16.865,0ZM24.42,13.678,15.987,22.11a1.913,1.913,0,0,1-1.315.523,1.943,1.943,0,0,1-1.181-.607L8.6,17.219a1.856,1.856,0,0,1,0-2.631,1.82,1.82,0,0,1,2.614,0l3.542,3.542,7.083-7.083a1.843,1.843,0,1,1,2.58,2.631Z" transform="translate(209.02 180.5)"/></g></svg>